<?xml version="1.0" encoding="utf-8"?>
<!-- Generator: Adobe Illustrator 14.0.0, SVG Export Plug-In . SVG Version: 6.00 Build 43363)  -->
<!DOCTYPE svg PUBLIC "-//W3C//DTD SVG 1.0//EN" "http://www.w3.org/TR/2001/REC-SVG-20010904/DTD/svg10.dtd">
<svg version="1.0"
	 id="svg5103" sodipodi:version="0.32" inkscape:version="0.44" sodipodi:docname="Sixteen-segment_display_field.svg" sodipodi:docbase="C:\Documents and Settings\David Nelson\Archives\Svg" xmlns:dc="http://purl.org/dc/elements/1.1/" xmlns:cc="http://web.resource.org/cc/" xmlns:rdf="http://www.w3.org/1999/02/22-rdf-syntax-ns#" xmlns:svg="http://www.w3.org/2000/svg" xmlns:sodipodi="http://sodipodi.sourceforge.net/DTD/sodipodi-0.dtd" xmlns:inkscape="http://www.inkscape.org/namespaces/inkscape"
	 xmlns="http://www.w3.org/2000/svg" xmlns:xlink="http://www.w3.org/1999/xlink" x="0px" y="0px" width="302.167px" height="202px"
	 viewBox="0 0 302.167 202" enable-background="new 0 0 302.167 202" xml:space="preserve">
<sodipodi:namedview  id="base" inkscape:window-y="30" inkscape:window-x="3" inkscape:window-height="573" inkscape:window-width="853" inkscape:current-layer="layer1" inkscape:document-units="px" inkscape:pageshadow="2" inkscape:pageopacity="0.0" objecttolerance="10" guidetolerance="10" gridtolerance="10000" borderopacity="1.0" bordercolor="#666666" inkscape:cy="100.99993" inkscape:cx="71" pagecolor="#ffffff" inkscape:zoom="1.866337">
	</sodipodi:namedview>
<path id="path6069" sodipodi:nodetypes="ccccccc" fill="#FF0000" d="M32,24.5l27,45v18h-9l-27-45v-18H32z"/>
<path id="path6071" sodipodi:nodetypes="ccccccc" fill="#FF0000" d="M110,24.5l-27,45v18h9l27-45v-18H110z"/>
<path id="path6006" sodipodi:nodetypes="ccccccc" inkscape:transform-center-y="-45" fill="#FF0000" d="M62,87.5v-63l9-9l9,9v63
	l-9,9L62,87.5z"/>
<path id="path6008" sodipodi:nodetypes="ccccccc" inkscape:transform-center-y="-45" fill="#FF0000" d="M62,87.5v-63l9-9l9,9v63
	l-9,9L62,87.5z"/>
<path id="path6067" sodipodi:nodetypes="ccccccc" fill="#FF0000" d="M110,177.5l-27-45v-18h9l27,45v18H110z"/>
<path id="rect6058" sodipodi:nodetypes="ccccccc" fill="#FF0000" d="M32,177.5l27-45v-18h-9l-27,45v18H32z"/>
<path id="path6010" sodipodi:nodetypes="ccccccc" inkscape:transform-center-y="-45" fill="#FF0000" d="M62,177.5v-63l9-9l9,9v63
	l-9,9L62,177.5z"/>
<path id="path6012" sodipodi:nodetypes="ccccccc" fill="#FF0000" d="M23,2h36l9,9l-9,9H23l-9-9L23,2z"/>
<path id="path6014" sodipodi:nodetypes="ccccccc" fill="#FF0000" d="M83,2h36l9,9l-9,9H83l-9-9L83,2z"/>
<path id="path6016" sodipodi:nodetypes="ccccccc" inkscape:transform-center-y="-45" fill="#FF0000" d="M2,87.5v-63l9-9l9,9v63l-9,9
	L2,87.5z"/>
<path id="path6018" sodipodi:nodetypes="ccccccc" inkscape:transform-center-y="-45" fill="#FF0000" d="M2,177.5v-63l9-9l9,9v63
	l-9,9L2,177.5z"/>
<path id="path6020" sodipodi:nodetypes="ccccccc" inkscape:transform-center-y="-45" fill="#FF0000" d="M122,87.5v-63l9-9l9,9v63
	l-9,9L122,87.5z"/>
<path id="path6022" sodipodi:nodetypes="ccccccc" inkscape:transform-center-y="-45" fill="#FF0000" d="M122,177.5v-63l9-9l9,9v63
	l-9,9L122,177.5z"/>
<path id="path6024" sodipodi:nodetypes="ccccccc" fill="#FF0000" d="M23,182h36l9,9l-9,9H23l-9-9L23,182z"/>
<path id="path6026" sodipodi:nodetypes="ccccccc" fill="#FF0000" d="M83,182h36l9,9l-9,9H83l-9-9L83,182z"/>
<path id="rect6001" sodipodi:nodetypes="ccccccc" fill="#FF0000" d="M23,92h36l9,9l-9,9H23l-9-9L23,92z"/>
<path id="path6004" sodipodi:nodetypes="ccccccc" fill="#FF0000" d="M83,92h36l9,9l-9,9H83l-9-9L83,92z"/>
<path id="path6069_1_" sodipodi:nodetypes="ccccccc" fill="#FF0000" d="M204,24.5l27,45v18h-9l-27-45v-18H204z"/>
<path id="path6071_1_" sodipodi:nodetypes="ccccccc" fill="#FF0000" d="M282,24.5l-27,45v18h9l27-45v-18H282z"/>
<path id="path6067_1_" sodipodi:nodetypes="ccccccc" fill="#FF0000" d="M282,177.5l-27-45v-18h9l27,45v18H282z"/>
<path id="rect6058_1_" sodipodi:nodetypes="ccccccc" fill="#FF0000" d="M204,177.5l27-45v-18h-9l-27,45v18H204z"/>
<path id="rect6001_1_" sodipodi:nodetypes="ccccccc" fill="#FF0000" d="M195,92h36l9,9l-9,9h-36l-9-9L195,92z"/>
<path id="path6004_1_" sodipodi:nodetypes="ccccccc" fill="#FF0000" d="M255,92h36l9,9l-9,9h-36l-9-9L255,92z"/>
</svg>
