<?xml version="1.0" encoding="utf-8"?>
<!-- Generator: Adobe Illustrator 14.0.0, SVG Export Plug-In . SVG Version: 6.00 Build 43363)  -->
<!DOCTYPE svg PUBLIC "-//W3C//DTD SVG 1.0//EN" "http://www.w3.org/TR/2001/REC-SVG-20010904/DTD/svg10.dtd">
<svg version="1.0" id="Layer_1" xmlns="http://www.w3.org/2000/svg" xmlns:xlink="http://www.w3.org/1999/xlink" x="0px" y="0px"
	 width="335.281px" height="308.88px" viewBox="0 0 335.281 308.88" enable-background="new 0 0 335.281 308.88"
	 xml:space="preserve">
<g>
	<path fill="none" stroke="#868686" stroke-width="1" stroke-linejoin="round" stroke-miterlimit="10" d="M41.16,10.92h282.96
		 M41.16,38.521h282.96 M41.16,66.12h282.96 M41.16,93.72h282.96 M41.16,121.32h282.96 M41.16,148.92h282.96 M41.16,176.28h282.96
		 M41.16,203.881h282.96 M41.16,231.48h282.96 M41.16,259.08h282.96"/>
	<path d="M316.56,284.4h4.32v2.16h-4.32V284.4z M305.52,285.12h4.321v1.44h-4.321V285.12z M294.719,282h4.32v4.561h-4.32V282z
		 M283.68,284.16h4.561v2.4h-4.561V284.16z M272.879,283.68h4.32v2.881h-4.32V283.68z M262.081,285.6h4.32v0.961h-4.32V285.6z
		 M251.04,276.961h4.561v9.6h-4.561V276.961z M240.241,277.2h4.318v9.36h-4.318V277.2z M229.44,285.6h4.32v0.961h-4.32V285.6z
		 M218.401,283.92h4.559v2.641h-4.559V283.92z M207.6,282.24h4.32v4.32h-4.32V282.24z M196.799,284.641h4.32v1.92h-4.32V284.641z
		 M185.76,283.68h4.32v2.881h-4.32V283.68z M174.959,279.12h4.32v7.44h-4.32V279.12z M164.16,267.6h4.32v18.961h-4.32V267.6z
		 M153.12,283.2h4.32v3.36h-4.32V283.2z M142.32,276h4.32v10.561h-4.32V276z M131.52,276.721h4.32v9.84h-4.32V276.721z
		 M120.48,276.961h4.32v9.6h-4.32V276.961z M109.68,274.801H114v11.76h-4.32V274.801z M98.64,271.92h4.56v14.641h-4.56V271.92z
		 M87.84,268.561h4.32v18h-4.32V268.561z M77.04,261.36h4.32v25.2h-4.32V261.36z M66,239.76h4.56v46.801H66V239.76z M55.2,206.16
		h4.32v80.4H55.2V206.16z M44.4,39.12h4.32v247.44H44.4V39.12z"/>
	
		<line fill="none" stroke="#868686" stroke-width="1" stroke-linejoin="round" stroke-miterlimit="10" x1="41.16" y1="286.68" x2="41.16" y2="10.92"/>
	<path fill="none" stroke="#868686" stroke-width="1" stroke-linejoin="round" stroke-miterlimit="10" d="M37.8,10.92h3.36
		 M37.8,38.521h3.36 M37.8,66.12h3.36 M37.8,93.72h3.36 M37.8,121.32h3.36 M37.8,148.92h3.36 M37.8,176.28h3.36 M37.8,203.881h3.36
		 M37.8,231.48h3.36 M37.8,259.08h3.36 M37.8,286.68h3.36"/>
	
		<line fill="none" stroke="#868686" stroke-width="1" stroke-linejoin="round" stroke-miterlimit="10" x1="41.16" y1="286.68" x2="324.121" y2="286.68"/>
	<path fill="none" stroke="#868686" stroke-width="1" stroke-linejoin="round" stroke-miterlimit="10" d="M324.121,286.68v2.641
		 M313.082,286.68v2.641 M302.28,286.68v2.641 M291.481,286.68v2.641 M280.44,286.68v2.641 M269.639,286.68v2.641 M258.84,286.68
		v2.641 M247.799,286.68v2.641 M237,286.68v2.641 M226.2,286.68v2.641 M215.161,286.68v2.641 M204.36,286.68v2.641 M193.559,286.68
		v2.641 M182.52,286.68v2.641 M171.719,286.68v2.641 M160.68,286.68v2.641 M149.88,286.68v2.641 M139.08,286.68v2.641
		 M128.04,286.68v2.641 M117.24,286.68v2.641 M106.44,286.68v2.641 M95.4,286.68v2.641 M84.6,286.68v2.641 M73.8,286.68v2.641
		 M62.76,286.68v2.641 M51.96,286.68v2.641 M41.16,286.68v2.641"/>
	<g>
		<defs>
			<rect id="SVGID_1_" width="335.281" height="315.12"/>
		</defs>
		<clipPath id="SVGID_2_">
			<use xlink:href="#SVGID_1_"  overflow="visible"/>
		</clipPath>
		<g clip-path="url(#SVGID_2_)">
			<text transform="matrix(1 0 0 1 16.5103 290.2803)"><tspan x="0" y="0" font-family="'Tahoma'" font-size="10.08">0</tspan><tspan x="5.513" y="0" font-family="'Tahoma'" font-size="10.08">%</tspan></text>
		</g>
	</g>
	<g>
		<defs>
			<rect id="SVGID_3_" width="335.281" height="315.12"/>
		</defs>
		<clipPath id="SVGID_4_">
			<use xlink:href="#SVGID_3_"  overflow="visible"/>
		</clipPath>
		<g clip-path="url(#SVGID_4_)">
			<text transform="matrix(1 0 0 1 16.5103 262.7305)"><tspan x="0" y="0" font-family="'Tahoma'" font-size="10.08">5</tspan><tspan x="5.513" y="0" font-family="'Tahoma'" font-size="10.08">%</tspan></text>
		</g>
	</g>
	<g>
		<defs>
			<rect id="SVGID_5_" width="335.281" height="315.12"/>
		</defs>
		<clipPath id="SVGID_6_">
			<use xlink:href="#SVGID_5_"  overflow="visible"/>
		</clipPath>
		<g clip-path="url(#SVGID_6_)">
			<text transform="matrix(1 0 0 1 10.9199 235.1504)"><tspan x="0" y="0" font-family="'Tahoma'" font-size="10.08">10</tspan><tspan x="11.025" y="0" font-family="'Tahoma'" font-size="10.08">%</tspan></text>
		</g>
	</g>
	<g>
		<defs>
			<rect id="SVGID_7_" width="335.281" height="315.12"/>
		</defs>
		<clipPath id="SVGID_8_">
			<use xlink:href="#SVGID_7_"  overflow="visible"/>
		</clipPath>
		<g clip-path="url(#SVGID_8_)">
			<text transform="matrix(1 0 0 1 10.9199 207.6001)"><tspan x="0" y="0" font-family="'Tahoma'" font-size="10.08">15</tspan><tspan x="11.025" y="0" font-family="'Tahoma'" font-size="10.08">%</tspan></text>
		</g>
	</g>
	<g>
		<defs>
			<rect id="SVGID_9_" width="335.281" height="315.12"/>
		</defs>
		<clipPath id="SVGID_10_">
			<use xlink:href="#SVGID_9_"  overflow="visible"/>
		</clipPath>
		<g clip-path="url(#SVGID_10_)">
			<text transform="matrix(1 0 0 1 10.9199 180.0205)"><tspan x="0" y="0" font-family="'Tahoma'" font-size="10.08">20</tspan><tspan x="11.025" y="0" font-family="'Tahoma'" font-size="10.08">%</tspan></text>
		</g>
	</g>
	<g>
		<defs>
			<rect id="SVGID_11_" width="335.281" height="315.12"/>
		</defs>
		<clipPath id="SVGID_12_">
			<use xlink:href="#SVGID_11_"  overflow="visible"/>
		</clipPath>
		<g clip-path="url(#SVGID_12_)">
			<text transform="matrix(1 0 0 1 10.9199 152.4702)"><tspan x="0" y="0" font-family="'Tahoma'" font-size="10.08">25</tspan><tspan x="11.025" y="0" font-family="'Tahoma'" font-size="10.08">%</tspan></text>
		</g>
	</g>
	<g>
		<defs>
			<rect id="SVGID_13_" width="335.281" height="315.12"/>
		</defs>
		<clipPath id="SVGID_14_">
			<use xlink:href="#SVGID_13_"  overflow="visible"/>
		</clipPath>
		<g clip-path="url(#SVGID_14_)">
			<text transform="matrix(1 0 0 1 10.9199 124.9004)"><tspan x="0" y="0" font-family="'Tahoma'" font-size="10.08">30</tspan><tspan x="11.025" y="0" font-family="'Tahoma'" font-size="10.08">%</tspan></text>
		</g>
	</g>
	<g>
		<defs>
			<rect id="SVGID_15_" width="335.281" height="315.12"/>
		</defs>
		<clipPath id="SVGID_16_">
			<use xlink:href="#SVGID_15_"  overflow="visible"/>
		</clipPath>
		<g clip-path="url(#SVGID_16_)">
			<text transform="matrix(1 0 0 1 10.9199 97.3403)"><tspan x="0" y="0" font-family="'Tahoma'" font-size="10.08">35</tspan><tspan x="11.025" y="0" font-family="'Tahoma'" font-size="10.08">%</tspan></text>
		</g>
	</g>
	<g>
		<defs>
			<rect id="SVGID_17_" width="335.281" height="315.12"/>
		</defs>
		<clipPath id="SVGID_18_">
			<use xlink:href="#SVGID_17_"  overflow="visible"/>
		</clipPath>
		<g clip-path="url(#SVGID_18_)">
			<text transform="matrix(1 0 0 1 10.9199 69.7705)"><tspan x="0" y="0" font-family="'Tahoma'" font-size="10.08">40</tspan><tspan x="11.025" y="0" font-family="'Tahoma'" font-size="10.08">%</tspan></text>
		</g>
	</g>
	<g>
		<defs>
			<rect id="SVGID_19_" width="335.281" height="315.12"/>
		</defs>
		<clipPath id="SVGID_20_">
			<use xlink:href="#SVGID_19_"  overflow="visible"/>
		</clipPath>
		<g clip-path="url(#SVGID_20_)">
			<text transform="matrix(1 0 0 1 10.9199 42.2202)"><tspan x="0" y="0" font-family="'Tahoma'" font-size="10.08">45</tspan><tspan x="11.025" y="0" font-family="'Tahoma'" font-size="10.08">%</tspan></text>
		</g>
	</g>
	<g>
		<defs>
			<rect id="SVGID_21_" width="335.281" height="315.12"/>
		</defs>
		<clipPath id="SVGID_22_">
			<use xlink:href="#SVGID_21_"  overflow="visible"/>
		</clipPath>
		<g clip-path="url(#SVGID_22_)">
			<text transform="matrix(1 0 0 1 10.9199 14.6401)"><tspan x="0" y="0" font-family="'Tahoma'" font-size="10.08">50</tspan><tspan x="11.025" y="0" font-family="'Tahoma'" font-size="10.08">%</tspan></text>
		</g>
	</g>
	<g>
		<defs>
			<rect id="SVGID_23_" x="41.76" y="290.4" width="10.8" height="14.16"/>
		</defs>
		<clipPath id="SVGID_24_">
			<use xlink:href="#SVGID_23_"  overflow="visible"/>
		</clipPath>
		<g clip-path="url(#SVGID_24_)">
			<text transform="matrix(-6.123234e-017 -1 1 -6.123234e-017 49.75 299.811)" font-family="'Tahoma'" font-size="7.92">1</text>
		</g>
	</g>
	<g>
		<defs>
			<rect id="SVGID_25_" x="52.56" y="290.4" width="10.8" height="14.16"/>
		</defs>
		<clipPath id="SVGID_26_">
			<use xlink:href="#SVGID_25_"  overflow="visible"/>
		</clipPath>
		<g clip-path="url(#SVGID_26_)">
			<text transform="matrix(-6.123234e-017 -1 1 -6.123234e-017 60.6499 299.8096)" font-family="'Tahoma'" font-size="7.92">2</text>
		</g>
	</g>
	<g>
		<defs>
			<rect id="SVGID_27_" x="63.6" y="290.4" width="10.8" height="14.16"/>
		</defs>
		<clipPath id="SVGID_28_">
			<use xlink:href="#SVGID_27_"  overflow="visible"/>
		</clipPath>
		<g clip-path="url(#SVGID_28_)">
			<text transform="matrix(-6.123234e-017 -1 1 -6.123234e-017 71.54 299.8101)" font-family="'Tahoma'" font-size="7.92">3</text>
		</g>
	</g>
	<g>
		<defs>
			<rect id="SVGID_29_" x="74.4" y="290.4" width="10.8" height="14.16"/>
		</defs>
		<clipPath id="SVGID_30_">
			<use xlink:href="#SVGID_29_"  overflow="visible"/>
		</clipPath>
		<g clip-path="url(#SVGID_30_)">
			<text transform="matrix(-6.123234e-017 -1 1 -6.123234e-017 82.4399 299.8105)" font-family="'Tahoma'" font-size="7.944">4</text>
		</g>
	</g>
	<g>
		<defs>
			<rect id="SVGID_31_" x="85.2" y="290.4" width="10.8" height="14.16"/>
		</defs>
		<clipPath id="SVGID_32_">
			<use xlink:href="#SVGID_31_"  overflow="visible"/>
		</clipPath>
		<g clip-path="url(#SVGID_32_)">
			<text transform="matrix(-6.123234e-017 -1 1 -6.123234e-017 93.3096 299.8096)" font-family="'Tahoma'" font-size="7.92">5</text>
		</g>
	</g>
	<g>
		<defs>
			<rect id="SVGID_33_" x="96.24" y="290.4" width="10.8" height="14.16"/>
		</defs>
		<clipPath id="SVGID_34_">
			<use xlink:href="#SVGID_33_"  overflow="visible"/>
		</clipPath>
		<g clip-path="url(#SVGID_34_)">
			<text transform="matrix(-6.123234e-017 -1 1 -6.123234e-017 104.21 299.8101)" font-family="'Tahoma'" font-size="7.92">6</text>
		</g>
	</g>
	<g>
		<defs>
			<rect id="SVGID_35_" x="107.04" y="290.4" width="10.8" height="14.16"/>
		</defs>
		<clipPath id="SVGID_36_">
			<use xlink:href="#SVGID_35_"  overflow="visible"/>
		</clipPath>
		<g clip-path="url(#SVGID_36_)">
			<text transform="matrix(-6.123234e-017 -1 1 -6.123234e-017 115.0996 299.8086)" font-family="'Tahoma'" font-size="7.92">7</text>
		</g>
	</g>
	<g>
		<defs>
			<rect id="SVGID_37_" x="117.84" y="290.4" width="10.8" height="14.16"/>
		</defs>
		<clipPath id="SVGID_38_">
			<use xlink:href="#SVGID_37_"  overflow="visible"/>
		</clipPath>
		<g clip-path="url(#SVGID_38_)">
			<text transform="matrix(-6.123234e-017 -1 1 -6.123234e-017 125.98 299.8096)" font-family="'Tahoma'" font-size="7.92">8</text>
		</g>
	</g>
	<g>
		<defs>
			<rect id="SVGID_39_" x="128.88" y="290.4" width="10.8" height="14.16"/>
		</defs>
		<clipPath id="SVGID_40_">
			<use xlink:href="#SVGID_39_"  overflow="visible"/>
		</clipPath>
		<g clip-path="url(#SVGID_40_)">
			<text transform="matrix(-6.123234e-017 -1 1 -6.123234e-017 136.8696 299.8101)" font-family="'Tahoma'" font-size="7.92">9</text>
		</g>
	</g>
	<g>
		<defs>
			<rect id="SVGID_41_" x="139.68" y="290.4" width="10.8" height="18.48"/>
		</defs>
		<clipPath id="SVGID_42_">
			<use xlink:href="#SVGID_41_"  overflow="visible"/>
		</clipPath>
		<g clip-path="url(#SVGID_42_)">
			<text transform="matrix(-6.123234e-017 -1 1 -6.123234e-017 147.77 304.1504)" font-family="'Tahoma'" font-size="7.92">10</text>
		</g>
	</g>
	<g>
		<defs>
			<rect id="SVGID_43_" x="150.72" y="290.4" width="10.8" height="18.48"/>
		</defs>
		<clipPath id="SVGID_44_">
			<use xlink:href="#SVGID_43_"  overflow="visible"/>
		</clipPath>
		<g clip-path="url(#SVGID_44_)">
			<text transform="matrix(-6.123234e-017 -1 1 -6.123234e-017 158.6602 304.1509)" font-family="'Tahoma'" font-size="7.92">11</text>
		</g>
	</g>
	<g>
		<defs>
			<rect id="SVGID_45_" x="161.521" y="290.4" width="10.8" height="18.48"/>
		</defs>
		<clipPath id="SVGID_46_">
			<use xlink:href="#SVGID_45_"  overflow="visible"/>
		</clipPath>
		<g clip-path="url(#SVGID_46_)">
			<text transform="matrix(-6.123234e-017 -1 1 -6.123234e-017 169.54 304.1499)" font-family="'Tahoma'" font-size="7.92">12</text>
		</g>
	</g>
	<g>
		<defs>
			<rect id="SVGID_47_" x="172.321" y="290.4" width="10.799" height="18.48"/>
		</defs>
		<clipPath id="SVGID_48_">
			<use xlink:href="#SVGID_47_"  overflow="visible"/>
		</clipPath>
		<g clip-path="url(#SVGID_48_)">
			<text transform="matrix(-6.123234e-017 -1 1 -6.123234e-017 180.4302 304.1509)" font-family="'Tahoma'" font-size="7.92">13</text>
		</g>
	</g>
	<g>
		<defs>
			<rect id="SVGID_49_" x="183.36" y="290.4" width="10.801" height="18.48"/>
		</defs>
		<clipPath id="SVGID_50_">
			<use xlink:href="#SVGID_49_"  overflow="visible"/>
		</clipPath>
		<g clip-path="url(#SVGID_50_)">
			<text transform="matrix(-6.123234e-017 -1 1 -6.123234e-017 191.3301 304.1489)" font-family="'Tahoma'" font-size="7.92">14</text>
		</g>
	</g>
	<g>
		<defs>
			<rect id="SVGID_51_" x="194.161" y="290.4" width="10.799" height="18.48"/>
		</defs>
		<clipPath id="SVGID_52_">
			<use xlink:href="#SVGID_51_"  overflow="visible"/>
		</clipPath>
		<g clip-path="url(#SVGID_52_)">
			<text transform="matrix(-6.123234e-017 -1 1 -6.123234e-017 202.2202 304.1499)"><tspan x="0" y="0" font-family="'Tahoma'" font-size="7.944">1</tspan><tspan x="4.32" y="0" font-family="'Tahoma'" font-size="7.944">5</tspan></text>
		</g>
	</g>
	<g>
		<defs>
			<rect id="SVGID_53_" x="204.959" y="290.4" width="10.801" height="18.48"/>
		</defs>
		<clipPath id="SVGID_54_">
			<use xlink:href="#SVGID_53_"  overflow="visible"/>
		</clipPath>
		<g clip-path="url(#SVGID_54_)">
			<text transform="matrix(-6.123234e-017 -1 1 -6.123234e-017 213.1001 304.1528)" font-family="'Tahoma'" font-size="7.92">16</text>
		</g>
	</g>
	<g>
		<defs>
			<rect id="SVGID_55_" x="216" y="290.4" width="10.799" height="18.48"/>
		</defs>
		<clipPath id="SVGID_56_">
			<use xlink:href="#SVGID_55_"  overflow="visible"/>
		</clipPath>
		<g clip-path="url(#SVGID_56_)">
			<text transform="matrix(-6.123234e-017 -1 1 -6.123234e-017 223.9902 304.1489)" font-family="'Tahoma'" font-size="7.92">17</text>
		</g>
	</g>
	<g>
		<defs>
			<rect id="SVGID_57_" x="226.799" y="290.4" width="10.801" height="18.48"/>
		</defs>
		<clipPath id="SVGID_58_">
			<use xlink:href="#SVGID_57_"  overflow="visible"/>
		</clipPath>
		<g clip-path="url(#SVGID_58_)">
			<text transform="matrix(-6.123234e-017 -1 1 -6.123234e-017 234.8901 304.1519)" font-family="'Tahoma'" font-size="7.92">18</text>
		</g>
	</g>
	<g>
		<defs>
			<rect id="SVGID_59_" x="237.6" y="290.4" width="10.801" height="18.48"/>
		</defs>
		<clipPath id="SVGID_60_">
			<use xlink:href="#SVGID_59_"  overflow="visible"/>
		</clipPath>
		<g clip-path="url(#SVGID_60_)">
			<text transform="matrix(-6.123234e-017 -1 1 -6.123234e-017 245.7603 304.1489)" font-family="'Tahoma'" font-size="7.92">19</text>
		</g>
	</g>
	<g>
		<defs>
			<rect id="SVGID_61_" x="248.639" y="290.4" width="10.801" height="18.48"/>
		</defs>
		<clipPath id="SVGID_62_">
			<use xlink:href="#SVGID_61_"  overflow="visible"/>
		</clipPath>
		<g clip-path="url(#SVGID_62_)">
			<text transform="matrix(-6.123234e-017 -1 1 -6.123234e-017 256.6602 304.1509)" font-family="'Tahoma'" font-size="7.92">20</text>
		</g>
	</g>
	<g>
		<defs>
			<rect id="SVGID_63_" x="259.44" y="290.4" width="10.801" height="18.48"/>
		</defs>
		<clipPath id="SVGID_64_">
			<use xlink:href="#SVGID_63_"  overflow="visible"/>
		</clipPath>
		<g clip-path="url(#SVGID_64_)">
			<text transform="matrix(-6.123234e-017 -1 1 -6.123234e-017 267.5503 304.1519)" font-family="'Tahoma'" font-size="7.92">21</text>
		</g>
	</g>
	<g>
		<defs>
			<rect id="SVGID_65_" x="270.241" y="290.4" width="10.799" height="18.48"/>
		</defs>
		<clipPath id="SVGID_66_">
			<use xlink:href="#SVGID_65_"  overflow="visible"/>
		</clipPath>
		<g clip-path="url(#SVGID_66_)">
			<text transform="matrix(-6.123234e-017 -1 1 -6.123234e-017 278.4502 304.1499)" font-family="'Tahoma'" font-size="7.92">22</text>
		</g>
	</g>
	<g>
		<defs>
			<rect id="SVGID_67_" x="281.28" y="290.4" width="10.801" height="18.48"/>
		</defs>
		<clipPath id="SVGID_68_">
			<use xlink:href="#SVGID_67_"  overflow="visible"/>
		</clipPath>
		<g clip-path="url(#SVGID_68_)">
			<text transform="matrix(-6.123234e-017 -1 1 -6.123234e-017 289.3203 304.1509)" font-family="'Tahoma'" font-size="7.92">23</text>
		</g>
	</g>
	<g>
		<defs>
			<rect id="SVGID_69_" x="292.081" y="290.4" width="10.799" height="18.48"/>
		</defs>
		<clipPath id="SVGID_70_">
			<use xlink:href="#SVGID_69_"  overflow="visible"/>
		</clipPath>
		<g clip-path="url(#SVGID_70_)">
			<text transform="matrix(-6.123234e-017 -1 1 -6.123234e-017 300.2202 304.1499)" font-family="'Tahoma'" font-size="7.92">24</text>
		</g>
	</g>
	<g>
		<defs>
			<rect id="SVGID_71_" x="303.12" y="290.4" width="10.802" height="18.48"/>
		</defs>
		<clipPath id="SVGID_72_">
			<use xlink:href="#SVGID_71_"  overflow="visible"/>
		</clipPath>
		<g clip-path="url(#SVGID_72_)">
			<text transform="matrix(-6.123234e-017 -1 1 -6.123234e-017 311.1099 304.1499)" font-family="'Tahoma'" font-size="7.92">25</text>
		</g>
	</g>
	<g>
		<defs>
			<rect id="SVGID_73_" x="313.921" y="290.4" width="10.799" height="18.48"/>
		</defs>
		<clipPath id="SVGID_74_">
			<use xlink:href="#SVGID_73_"  overflow="visible"/>
		</clipPath>
		<g clip-path="url(#SVGID_74_)">
			<text transform="matrix(-6.123234e-017 -1 1 -6.123234e-017 322.0103 304.1489)"><tspan x="0" y="0" font-family="'Tahoma'" font-size="7.944">2</tspan><tspan x="4.32" y="0" font-family="'Tahoma'" font-size="7.944">6</tspan></text>
		</g>
	</g>
</g>
</svg>
